<svg width="20" height="21" viewBox="0 0 20 21" fill="none" xmlns="http://www.w3.org/2000/svg">
<path d="M11.6262 18.6901C11.461 18.975 11.2238 19.2114 10.9385 19.3758C10.6531 19.5401 10.3296 19.6266 10.0003 19.6266C9.67103 19.6266 9.34752 19.5401 9.06218 19.3758C8.77683 19.2114 8.53968 18.975 8.37445 18.6901M15.6392 6.47255C15.6392 4.97702 15.0451 3.54275 13.9876 2.48525C12.9301 1.42776 11.4959 0.83366 10.0003 0.83366C8.5048 0.83366 7.07053 1.42776 6.01303 2.48525C4.95553 3.54275 4.36144 4.97702 4.36144 6.47255C4.36144 13.0513 1.54199 14.9309 1.54199 14.9309H18.4587C18.4587 14.9309 15.6392 13.0513 15.6392 6.47255Z" stroke="#697E94" stroke-width="1.20833" stroke-linecap="round" stroke-linejoin="round"/>
</svg>
