<svg width="24" height="24" viewBox="0 0 24 24" fill="none" xmlns="http://www.w3.org/2000/svg">
<path d="M8.4375 12.0873H10.7396M8.4375 9.92061H16.0208M16.0208 7.75397H10.7396" stroke="#CDD4DB" stroke-linecap="round"/>
<path d="M18.5034 12.809V7C18.5034 5.89543 17.6079 5 16.5034 5H8C6.89543 5 6 5.89543 6 7L6 15.4582C6 16.5628 6.89543 17.4582 8 17.4582H13.7638" stroke="#CDD4DB" stroke-linecap="round"/>
<path d="M14.4947 12.353L12.9512 12.0869L13.0798 12.9232C13.2089 13.7621 13.6017 14.538 14.2014 15.1385L16.0554 16.9952C16.6075 17.5482 17.5051 17.5433 18.0513 16.9845C18.5801 16.4433 18.5845 15.5803 18.0612 15.0338L16.5321 13.4369C15.9864 12.867 15.2723 12.4871 14.4947 12.353Z" stroke="#CDD4DB" stroke-linecap="round" stroke-linejoin="round"/>
<ellipse cx="8.75325" cy="7.70833" rx="0.677077" ry="0.677077" fill="#CDD4DB"/>
</svg>
