<svg width="24" height="24" viewBox="0 0 24 24" fill="none" xmlns="http://www.w3.org/2000/svg">
<path d="M7.23214 8.51216C7.53643 7.25787 9.32071 7.25787 9.625 8.51216C9.67066 8.70058 9.76016 8.87557 9.88622 9.02287C10.0123 9.17017 10.1713 9.28562 10.3505 9.35983C10.5296 9.43404 10.7237 9.46491 10.917 9.44992C11.1103 9.43493 11.2973 9.37451 11.4629 9.27358C12.565 8.60216 13.8271 9.86358 13.1557 10.9664C13.0549 11.1319 12.9946 11.3188 12.9797 11.512C12.9647 11.7052 12.9955 11.8991 13.0697 12.0781C13.1438 12.2571 13.2591 12.4161 13.4062 12.5422C13.5534 12.6682 13.7282 12.7578 13.9164 12.8036C15.1707 13.1079 15.1707 14.8922 13.9164 15.1964C13.728 15.2421 13.553 15.3316 13.4057 15.4577C13.2584 15.5837 13.143 15.7428 13.0688 15.9219C12.9945 16.101 12.9637 16.2951 12.9787 16.4884C12.9937 16.6817 13.0541 16.8688 13.155 17.0343C13.8264 18.1364 12.565 19.3986 11.4621 18.7272C11.2967 18.6264 11.1098 18.566 10.9166 18.5511C10.7234 18.5361 10.5294 18.567 10.3504 18.6411C10.1714 18.7152 10.0124 18.8305 9.88639 18.9777C9.76034 19.1248 9.67078 19.2996 9.625 19.4879C9.32071 20.7422 7.53643 20.7422 7.23214 19.4879C7.18649 19.2994 7.09698 19.1245 6.97092 18.9772C6.84486 18.8299 6.68579 18.7144 6.50668 18.6402C6.32756 18.566 6.13345 18.5351 5.94015 18.5501C5.74685 18.5651 5.55982 18.6255 5.39429 18.7264C4.29214 19.3979 3.03 18.1364 3.70143 17.0336C3.80222 16.8681 3.86254 16.6812 3.87749 16.488C3.89244 16.2949 3.8616 16.1009 3.78748 15.9219C3.71336 15.7429 3.59804 15.5839 3.45091 15.4578C3.30378 15.3318 3.12897 15.2422 2.94071 15.1964C1.68643 14.8922 1.68643 13.1079 2.94071 12.8036C3.12914 12.7579 3.30413 12.6684 3.45143 12.5424C3.59873 12.4163 3.71418 12.2572 3.78839 12.0781C3.8626 11.899 3.89346 11.7049 3.87848 11.5116C3.86349 11.3183 3.80307 11.1313 3.70214 10.9657C3.03071 9.86358 4.29214 8.60144 5.395 9.27287C6.10929 9.70716 7.035 9.32287 7.23214 8.51216Z" stroke="#E6EAED" stroke-linecap="round" stroke-linejoin="round"/>
<path d="M6.28564 14C6.28564 14.5684 6.51141 15.1134 6.91327 15.5153C7.31514 15.9171 7.86018 16.1429 8.4285 16.1429C8.99682 16.1429 9.54187 15.9171 9.94373 15.5153C10.3456 15.1134 10.5714 14.5684 10.5714 14C10.5714 13.4317 10.3456 12.8867 9.94373 12.4848C9.54187 12.0829 8.99682 11.8572 8.4285 11.8572C7.86018 11.8572 7.31514 12.0829 6.91327 12.4848C6.51141 12.8867 6.28564 13.4317 6.28564 14Z" stroke="#E6EAED" stroke-linecap="round" stroke-linejoin="round"/>
<path d="M16.9067 4.52262C17.0758 3.82579 18.0671 3.82579 18.2361 4.52262C18.2615 4.6273 18.3112 4.72452 18.3812 4.80635C18.4513 4.88818 18.5396 4.95232 18.6391 4.99355C18.7387 5.03478 18.8465 5.05193 18.9539 5.0436C19.0613 5.03527 19.1652 5.00171 19.2571 4.94563C19.8694 4.57262 20.5706 5.27341 20.1976 5.88611C20.1416 5.97804 20.1081 6.08188 20.0998 6.1892C20.0915 6.29651 20.1086 6.40427 20.1498 6.50372C20.191 6.60317 20.2551 6.6915 20.3368 6.76153C20.4185 6.83156 20.5156 6.88131 20.6202 6.90675C21.3171 7.07579 21.3171 8.06706 20.6202 8.23611C20.5156 8.26148 20.4183 8.3112 20.3365 8.38123C20.2547 8.45127 20.1905 8.53964 20.1493 8.63915C20.1081 8.73866 20.0909 8.84649 20.0993 8.95388C20.1076 9.06127 20.1412 9.16518 20.1972 9.25714C20.5702 9.86944 19.8694 10.5706 19.2567 10.1976C19.1648 10.1416 19.061 10.1081 18.9537 10.0998C18.8463 10.0915 18.7386 10.1086 18.6391 10.1498C18.5397 10.191 18.4514 10.2551 18.3813 10.3368C18.3113 10.4185 18.2615 10.5156 18.2361 10.6202C18.0671 11.3171 17.0758 11.3171 16.9067 10.6202C16.8814 10.5156 16.8317 10.4183 16.7616 10.3365C16.6916 10.2547 16.6032 10.1905 16.5037 10.1493C16.4042 10.1081 16.2964 10.0909 16.189 10.0993C16.0816 10.1076 15.9777 10.1412 15.8857 10.1972C15.2734 10.5702 14.5722 9.86944 14.9452 9.25675C15.0012 9.16482 15.0347 9.06098 15.043 8.95366C15.0514 8.84635 15.0342 8.73858 14.993 8.63914C14.9519 8.53969 14.8878 8.45136 14.8061 8.38133C14.7243 8.3113 14.6272 8.26155 14.5226 8.23611C13.8258 8.06706 13.8258 7.07579 14.5226 6.90675C14.6273 6.88138 14.7245 6.83166 14.8063 6.76162C14.8882 6.69159 14.9523 6.60322 14.9936 6.50371C15.0348 6.4042 15.0519 6.29636 15.0436 6.18897C15.0353 6.08159 15.0017 5.97768 14.9456 5.88571C14.5726 5.27341 15.2734 4.57222 15.8861 4.94524C16.2829 5.18651 16.7972 4.97302 16.9067 4.52262Z" stroke="#E6EAED" stroke-width="0.7" stroke-linecap="round" stroke-linejoin="round"/>
<path d="M16.3809 7.57143C16.3809 7.88716 16.5063 8.18996 16.7295 8.41322C16.9528 8.63648 17.2556 8.7619 17.5713 8.7619C17.8871 8.7619 18.1899 8.63648 18.4131 8.41322C18.6364 8.18996 18.7618 7.88716 18.7618 7.57143C18.7618 7.25569 18.6364 6.95289 18.4131 6.72963C18.1899 6.50638 17.8871 6.38095 17.5713 6.38095C17.2556 6.38095 16.9528 6.50638 16.7295 6.72963C16.5063 6.95289 16.3809 7.25569 16.3809 7.57143Z" stroke="#E6EAED" stroke-width="0.7" stroke-linecap="round" stroke-linejoin="round"/>
</svg>
