<svg width="24" height="24" viewBox="0 0 24 24" fill="none" xmlns="http://www.w3.org/2000/svg">
<path d="M12 20C16.4183 20 20 16.4183 20 12C20 7.58172 16.4183 4 12 4C7.58172 4 4 7.58172 4 12C4 16.4183 7.58172 20 12 20Z" stroke="#E6EAED"/>
<path d="M12.0001 7.20001V16.8M14.4001 10C14.4001 8.89601 13.3257 8.00001 12.0001 8.00001C10.6745 8.00001 9.6001 8.89601 9.6001 10C9.6001 11.104 10.6745 12 12.0001 12C13.3257 12 14.4001 12.896 14.4001 14C14.4001 15.104 13.3257 16 12.0001 16C10.6745 16 9.6001 15.104 9.6001 14" stroke="#E6EAED" stroke-linecap="round"/>
</svg>
