<svg width="24" height="24" viewBox="0 0 24 24" fill="none" xmlns="http://www.w3.org/2000/svg">
<path d="M7.33733 14.2487L5.50977 12.476C3.61787 10.6408 3.69211 7.58249 5.67082 5.8413V5.8413C7.4293 4.29391 10.0788 4.3471 11.7737 5.96383L12.2477 6.41589V6.41589C14.0752 4.52942 17.0965 4.49191 18.9827 6.31967V6.31967C20.8853 8.16329 20.9381 11.2122 19.0875 13.108L18.0654 14.155" stroke="#CDD4DB" stroke-width="0.7" stroke-linecap="round"/>
<path d="M12.2477 6.36243L8.94785 9.66225C8.64959 9.9605 8.65417 10.4455 8.95799 10.738V10.738C9.45104 11.2128 10.2334 11.2054 10.7174 10.7214L12.8557 8.58317C13.1969 8.242 13.7509 8.24474 14.0886 8.58927L18.1314 12.7129C18.5087 13.0977 18.5056 13.7146 18.1246 14.0957V14.0957C17.7389 14.4814 17.113 14.4792 16.73 14.0909L13.582 10.8992" stroke="#CDD4DB" stroke-width="0.7" stroke-linecap="round"/>
<path d="M12.1946 12.2869L15.397 15.4893C15.7802 15.8725 16.4015 15.8725 16.7847 15.4893V15.4893C17.1679 15.1061 17.1679 14.4848 16.7847 14.1016L13.5823 10.8992" stroke="#CDD4DB" stroke-width="0.7" stroke-linecap="round"/>
<path d="M13.9559 16.8238L14.0093 16.8771C14.3925 17.2603 15.0138 17.2603 15.397 16.8771V16.8771C15.7802 16.4939 15.7802 15.8726 15.397 15.4894L12.1946 12.287" stroke="#CDD4DB" stroke-width="0.7" stroke-linecap="round"/>
<rect x="9.06211" y="12.4614" width="1.36803" height="2.75532" rx="0.684015" transform="rotate(44.31 9.06211 12.4614)" stroke="#CDD4DB" stroke-width="0.7"/>
<rect x="10.4686" y="13.8337" width="1.36803" height="2.75532" rx="0.684015" transform="rotate(44.31 10.4686 13.8337)" stroke="#CDD4DB" stroke-width="0.7"/>
<rect x="11.8736" y="15.206" width="1.36803" height="2.75532" rx="0.684015" transform="rotate(44.31 11.8736 15.206)" stroke="#CDD4DB" stroke-width="0.7"/>
<rect x="13.2792" y="16.5779" width="1.36803" height="2.75532" rx="0.684015" transform="rotate(44.31 13.2792 16.5779)" stroke="#CDD4DB" stroke-width="0.7"/>
</svg>
