<svg width="24" height="24" viewBox="0 0 24 24" fill="none" xmlns="http://www.w3.org/2000/svg">
<path d="M6.63821 14.6382C7.26935 15.9209 8.33944 16.9349 9.65428 17.496C10.9691 18.0572 12.4416 18.1284 13.8044 17.6967C15.1673 17.2651 16.3302 16.3591 17.0822 15.1433C17.8342 13.9275 18.1254 12.4823 17.9029 11.0702C17.6805 9.65799 16.9591 8.37236 15.8698 7.44657C14.7805 6.52079 13.3954 6.0162 11.9658 6.02439C10.5362 6.03257 9.15697 6.55298 8.07832 7.49118C6.99966 8.42937 6.29309 9.72318 6.08683 11.1378M6.08683 11.1378L7.82501 10.2826M6.08683 11.1378L5.14286 9.66548" stroke="#E6EAED" stroke-linecap="round"/>
<path d="M11.4634 8.32104V12.2764L13.1707 13.8699" stroke="#E6EAED" stroke-linecap="round"/>
</svg>
