<svg width="24" height="24" viewBox="0 0 24 24" fill="none" xmlns="http://www.w3.org/2000/svg">
<path d="M10 10C11.6569 10 13 8.88071 13 7.5C13 6.11929 11.6569 5 10 5C8.34315 5 7 6.11929 7 7.5C7 8.88071 8.34315 10 10 10Z" stroke="#E6EAED"/>
<path d="M15.7835 16.1428C15.7857 16.0257 15.7857 15.9064 15.7857 15.7857C15.7857 14.0107 13.1472 12.5714 9.89286 12.5714C6.63853 12.5714 4 14.0107 4 15.7857C4 17.5607 4 19 9.89286 19C11.5362 19 12.7214 18.8878 13.5759 18.6878" stroke="#E6EAED" stroke-linecap="round"/>
<path fill-rule="evenodd" clip-rule="evenodd" d="M17 7C17.0238 7 17.0475 7.00028 17.0711 7.00083C17.3001 7.00618 17.4884 7.16982 17.5602 7.38733L17.5687 7.41314C17.6263 7.58765 17.7699 7.7186 17.939 7.7906V7.7906C18.1084 7.86276 18.3002 7.8739 18.4661 7.7939L18.4905 7.78217C18.6965 7.68281 18.9448 7.7044 19.1076 7.86512C19.1292 7.88645 19.1505 7.90811 19.1714 7.93009C19.3293 8.09566 19.3465 8.34427 19.2434 8.54851L19.2312 8.57268C19.1483 8.73704 19.156 8.92876 19.2252 9.09935V9.09935C19.2944 9.26989 19.423 9.41606 19.5968 9.47661L19.6221 9.4854C19.8382 9.56068 19.9985 9.75161 19.9999 9.98044C20.0001 10.0106 19.9999 10.0407 19.9992 10.0708C19.9938 10.2999 19.83 10.4884 19.6123 10.5602L19.5868 10.5687C19.4122 10.6263 19.2817 10.7684 19.2097 10.9376V10.9376C19.1376 11.107 19.126 11.3001 19.206 11.466L19.2176 11.49C19.317 11.6963 19.2953 11.9448 19.1345 12.1077C19.1132 12.1292 19.0917 12.1504 19.0698 12.1712C18.9042 12.3291 18.6556 12.3464 18.4513 12.2433L18.4273 12.2312C18.2629 12.1483 18.0697 12.1567 17.899 12.2258V12.2258C17.7284 12.2948 17.5839 12.4229 17.5233 12.5967L17.5145 12.622C17.4392 12.8381 17.2483 12.9984 17.0194 12.9999C16.9893 13.0001 16.9592 12.9998 16.9291 12.9991C16.7 12.9937 16.5115 12.8299 16.4397 12.6123L16.4313 12.5867C16.3736 12.4122 16.2315 12.2816 16.0623 12.2096V12.2096C15.8929 12.1376 15.6998 12.1259 15.5339 12.2059L15.5099 12.2175C15.3036 12.317 15.0551 12.2953 14.8922 12.1344C14.8708 12.1132 14.8496 12.0917 14.8288 12.0699C14.6708 11.9042 14.6536 11.6554 14.7567 11.451L14.7686 11.4273C14.8516 11.2628 14.8434 11.0695 14.7743 10.8988V10.8988C14.7053 10.7282 14.5771 10.5838 14.4034 10.5231L14.3782 10.5144C14.1619 10.4389 14.0014 10.2477 14.0001 10.0185C13.9999 9.98865 14.0001 9.95874 14.0008 9.92885C14.0062 9.69983 14.1699 9.51147 14.3875 9.43967L14.4132 9.43117C14.5877 9.37356 14.7187 9.23 14.7907 9.06092V9.06092C14.8628 8.89146 14.874 8.69969 14.794 8.53378L14.7823 8.50954C14.6829 8.30345 14.7046 8.05514 14.8653 7.89233C14.8866 7.87076 14.9082 7.84951 14.9302 7.82859C15.0957 7.67072 15.3444 7.65345 15.5486 7.75649L15.5726 7.76857C15.737 7.85154 15.9303 7.84313 16.1011 7.77404V7.77404C16.2716 7.70505 16.4162 7.57697 16.4768 7.40331L16.4856 7.37791C16.5611 7.16174 16.7522 7.00141 16.9811 7.00005C16.9874 7.00002 16.9937 7 17 7Z" stroke="#E6EAED" stroke-width="0.5" stroke-linecap="round" stroke-linejoin="round"/>
</svg>
